<svg width="33" height="32" viewBox="0 0 33 32" fill="none" xmlns="http://www.w3.org/2000/svg">
<path d="M9.50549 15.8625L11.3855 16.4892C12.6282 16.9025 13.2482 17.1105 13.6935 17.5559C14.1388 18.0012 14.3468 18.6225 14.7602 19.8625L15.3868 21.7425C16.4322 24.8812 16.9548 26.4492 17.9162 26.4492C18.8762 26.4492 19.4002 24.8812 20.4455 21.7425L24.2295 10.3932C24.9655 8.1852 25.3335 7.0812 24.7508 6.49853C24.1682 5.91587 23.0642 6.28387 20.8575 7.01853L9.50416 10.8052C6.36949 11.8492 4.79883 12.3719 4.79883 13.3332C4.79883 14.2932 6.36816 14.8172 9.50549 15.8625Z" fill="white" fill-opacity="0.25"/>
<path d="M9.50549 15.8625L11.3855 16.4892C12.6282 16.9025 13.2482 17.1105 13.6935 17.5559C14.1388 18.0012 14.3468 18.6225 14.7602 19.8625L15.3868 21.7425C16.4322 24.8812 16.9548 26.4492 17.9162 26.4492C18.8762 26.4492 19.4002 24.8812 20.4455 21.7425L24.2295 10.3932C24.9655 8.1852 25.3335 7.0812 24.7508 6.49853C24.1682 5.91587 23.0642 6.28387 20.8575 7.01853L9.50416 10.8052C6.36949 11.8492 4.79883 12.3719 4.79883 13.3332C4.79883 14.2932 6.36816 14.8172 9.50549 15.8625Z" fill="white" fill-opacity="0.35"/>
<path d="M11.9512 18.4561L9.20186 17.5401C9.00948 17.476 8.805 17.4566 8.60399 17.4834C8.40297 17.5102 8.21072 17.5825 8.04186 17.6948L6.58853 18.6628C6.41649 18.7774 6.28146 18.9395 6.19987 19.1295C6.11828 19.3194 6.09365 19.529 6.12896 19.7327C6.16427 19.9364 6.25801 20.1254 6.39878 20.2768C6.53955 20.4282 6.72128 20.5354 6.92186 20.5854L9.52853 21.2361C9.64583 21.2654 9.75296 21.326 9.83845 21.4115C9.92394 21.497 9.98458 21.6041 10.0139 21.7214L10.6645 24.3281C10.7145 24.5287 10.8218 24.7104 10.9732 24.8512C11.1246 24.992 11.3136 25.0857 11.5173 25.121C11.721 25.1563 11.9305 25.1317 12.1205 25.0501C12.3104 24.9685 12.4726 24.8335 12.5872 24.6614L13.5552 23.2081C13.6675 23.0392 13.7398 22.847 13.7666 22.646C13.7934 22.445 13.774 22.2405 13.7099 22.0481L12.7939 19.2988C12.7284 19.1026 12.6182 18.9243 12.4719 18.7781C12.3257 18.6318 12.1474 18.5216 11.9512 18.4561Z" fill="white" fill-opacity="0.95"/>
</svg>
