<svg width="116" height="116" viewBox="0 0 116 116" fill="none" xmlns="http://www.w3.org/2000/svg">
<path d="M33.5519 57.5017L40.3669 59.7733C44.8716 61.2717 47.1191 62.0257 48.7334 63.64C50.3477 65.2543 51.1017 67.5067 52.6001 72.0017L54.8717 78.8167C58.6611 90.1944 60.5557 95.8783 64.0406 95.8783C67.5206 95.8783 69.4201 90.1944 73.2094 78.8167L86.9264 37.6754C89.5944 29.6714 90.9284 25.6694 88.8162 23.5572C86.7041 21.445 82.7021 22.779 74.7029 25.4422L33.5471 39.1689C22.1839 42.9534 16.4902 44.848 16.4902 48.3329C16.4902 51.8129 22.1791 53.7124 33.5519 57.5017Z" fill="white" fill-opacity="0.25"/>
<path d="M33.5519 57.5017L40.3669 59.7733C44.8716 61.2717 47.1191 62.0257 48.7334 63.64C50.3477 65.2543 51.1017 67.5067 52.6001 72.0017L54.8717 78.8167C58.6611 90.1944 60.5557 95.8783 64.0406 95.8783C67.5206 95.8783 69.4201 90.1944 73.2094 78.8167L86.9264 37.6754C89.5944 29.6714 90.9284 25.6694 88.8162 23.5572C86.7041 21.445 82.7021 22.779 74.7029 25.4422L33.5471 39.1689C22.1839 42.9534 16.4902 44.848 16.4902 48.3329C16.4902 51.8129 22.1791 53.7124 33.5519 57.5017Z" fill="white" fill-opacity="0.5"/>
<path d="M42.4163 66.9035L32.45 63.583C31.7526 63.3505 31.0114 63.2802 30.2827 63.3774C29.554 63.4745 28.8571 63.7366 28.245 64.1437L22.9767 67.6527C22.353 68.0682 21.8636 68.656 21.5678 69.3445C21.272 70.0331 21.1827 70.7927 21.3107 71.5311C21.4388 72.2695 21.7786 72.9547 22.2888 73.5035C22.7991 74.0523 23.4579 74.441 24.185 74.6223L33.6342 76.981C34.0594 77.0872 34.4477 77.307 34.7576 77.6169C35.0676 77.9268 35.2873 78.3151 35.3935 78.7404L37.7522 88.1895C37.9335 88.9166 38.3222 89.5754 38.871 90.0857C39.4198 90.596 40.1051 90.9358 40.8434 91.0638C41.5818 91.1918 42.3415 91.1025 43.03 90.8067C43.7186 90.511 44.3063 90.0215 44.7218 89.3979L48.2308 84.1295C48.6379 83.5174 48.9 82.8205 48.9972 82.0918C49.0943 81.3631 49.024 80.6219 48.7915 79.9245L45.471 69.9582C45.2337 69.247 44.8341 68.6007 44.3039 68.0706C43.7738 67.5404 43.1275 67.1409 42.4163 66.9035Z" fill="white" fill-opacity="0.95"/>
<mask id="mask0_15_2541" style="mask-type:luminance" maskUnits="userSpaceOnUse" x="76" y="38" width="28" height="28">
<path d="M90 64.5C91.6418 64.5021 93.2679 64.1798 94.7848 63.5515C96.3016 62.9231 97.6793 62.0012 98.8388 60.8388C100.001 59.6793 100.923 58.3016 101.551 56.7848C102.18 55.2679 102.502 53.6418 102.5 52C102.502 50.3582 102.18 48.7321 101.551 47.2153C100.923 45.6984 100.001 44.3207 98.8388 43.1613C97.6793 41.9988 96.3016 41.0769 94.7848 40.4486C93.2679 39.8202 91.6418 39.4979 90 39.5C88.3582 39.4979 86.7321 39.8203 85.2153 40.4486C83.6984 41.0769 82.3207 41.9988 81.1613 43.1613C79.9988 44.3207 79.0769 45.6984 78.4486 47.2153C77.8203 48.7321 77.4979 50.3582 77.5 52C77.4979 53.6418 77.8202 55.2679 78.4486 56.7848C79.0769 58.3016 79.9988 59.6793 81.1613 60.8388C82.3207 62.0012 83.6984 62.9231 85.2153 63.5514C86.7321 64.1797 88.3582 64.5021 90 64.5Z" fill="white" stroke="white" stroke-width="3" stroke-linejoin="round"/>
<path d="M85 52L88.75 55.75L96.25 48.25" stroke="black" stroke-width="3" stroke-linecap="round" stroke-linejoin="round"/>
</mask>
<g mask="url(#mask0_15_2541)">
<path d="M75 37H105V67H75V37Z" fill="white" fill-opacity="0.95"/>
</g>
</svg>
