<svg width="25" height="25" viewBox="0 0 25 25" fill="none" xmlns="http://www.w3.org/2000/svg">
<path d="M17 14H7C6.73478 14 6.48043 13.8946 6.29289 13.7071C6.10536 13.5196 6 13.2652 6 13C6 12.7348 6.10536 12.4804 6.29289 12.2929C6.48043 12.1054 6.73478 12 7 12H17C17.2652 12 17.5196 12.1054 17.7071 12.2929C17.8946 12.4804 18 12.7348 18 13C18 13.2652 17.8946 13.5196 17.7071 13.7071C17.5196 13.8946 17.2652 14 17 14Z" fill="white" fill-opacity="0.5"/>
<path d="M11.9995 3C10.1067 2.99972 8.25259 3.53668 6.65282 4.54846C5.05305 5.56025 3.77331 7.0053 2.96233 8.71564C2.15136 10.426 1.84247 12.3314 2.07157 14.2103C2.30067 16.0893 3.05835 17.8646 4.25653 19.33L2.29253 21.293C2.15273 21.4329 2.05752 21.611 2.01895 21.805C1.98038 21.9989 2.00019 22.2 2.07586 22.3827C2.15153 22.5654 2.27967 22.7215 2.44408 22.8314C2.60849 22.9413 2.80178 23 2.99953 23H11.9995C14.6517 23 17.1952 21.9464 19.0706 20.0711C20.946 18.1957 21.9995 15.6522 21.9995 13C21.9995 10.3478 20.946 7.8043 19.0706 5.92893C17.1952 4.05357 14.6517 3 11.9995 3ZM8.99954 8H14.9995C15.2648 8 15.5191 8.10536 15.7066 8.29289C15.8942 8.48043 15.9995 8.73478 15.9995 9C15.9995 9.26522 15.8942 9.51957 15.7066 9.70711C15.5191 9.89464 15.2648 10 14.9995 10H8.99954C8.73432 10 8.47996 9.89464 8.29243 9.70711C8.10489 9.51957 7.99954 9.26522 7.99954 9C7.99954 8.73478 8.10489 8.48043 8.29243 8.29289C8.47996 8.10536 8.73432 8 8.99954 8ZM14.9995 18H8.99954C8.73432 18 8.47996 17.8946 8.29243 17.7071C8.10489 17.5196 7.99954 17.2652 7.99954 17C7.99954 16.7348 8.10489 16.4804 8.29243 16.2929C8.47996 16.1054 8.73432 16 8.99954 16H14.9995C15.2648 16 15.5191 16.1054 15.7066 16.2929C15.8942 16.4804 15.9995 16.7348 15.9995 17C15.9995 17.2652 15.8942 17.5196 15.7066 17.7071C15.5191 17.8946 15.2648 18 14.9995 18ZM16.9995 14H6.99954C6.73432 14 6.47996 13.8946 6.29243 13.7071C6.10489 13.5196 5.99954 13.2652 5.99954 13C5.99954 12.7348 6.10489 12.4804 6.29243 12.2929C6.47996 12.1054 6.73432 12 6.99954 12H16.9995C17.2648 12 17.5191 12.1054 17.7066 12.2929C17.8942 12.4804 17.9995 12.7348 17.9995 13C17.9995 13.2652 17.8942 13.5196 17.7066 13.7071C17.5191 13.8946 17.2648 14 16.9995 14Z" fill="white" fill-opacity="0.5"/>
<path d="M15 18H9C8.73478 18 8.48043 17.8946 8.29289 17.7071C8.10536 17.5196 8 17.2652 8 17C8 16.7348 8.10536 16.4804 8.29289 16.2929C8.48043 16.1054 8.73478 16 9 16H15C15.2652 16 15.5196 16.1054 15.7071 16.2929C15.8946 16.4804 16 16.7348 16 17C16 17.2652 15.8946 17.5196 15.7071 17.7071C15.5196 17.8946 15.2652 18 15 18ZM15 10H9C8.73478 10 8.48043 9.89464 8.29289 9.70711C8.10536 9.51957 8 9.26522 8 9C8 8.73478 8.10536 8.48043 8.29289 8.29289C8.48043 8.10536 8.73478 8 9 8H15C15.2652 8 15.5196 8.10536 15.7071 8.29289C15.8946 8.48043 16 8.73478 16 9C16 9.26522 15.8946 9.51957 15.7071 9.70711C15.5196 9.89464 15.2652 10 15 10Z" fill="white" fill-opacity="0.5"/>
<rect x="11" width="14" height="14" rx="7" fill="white" fill-opacity="0.95"/>
<path d="M14.2712 6.01172C14.2712 5.48568 14.4535 5.05599 14.8181 4.72266C15.1853 4.38932 15.658 4.22266 16.2361 4.22266C16.7934 4.22266 17.2517 4.375 17.6111 4.67969C17.9731 4.98438 18.1541 5.3724 18.1541 5.84375C18.1541 6.14583 18.0629 6.44531 17.8806 6.74219C17.6983 7.03646 17.3676 7.42057 16.8884 7.89453L15.7087 9.07812V9.14453H18.24V10H14.3259V9.30078L16.2048 7.37891C16.5903 6.98828 16.8468 6.69531 16.9744 6.5C17.102 6.30208 17.1658 6.10417 17.1658 5.90625C17.1658 5.65885 17.0746 5.45443 16.8923 5.29297C16.7127 5.13151 16.4835 5.05078 16.2048 5.05078C15.9106 5.05078 15.6723 5.13932 15.49 5.31641C15.3077 5.49349 15.2166 5.72526 15.2166 6.01172V6.02734H14.2712V6.01172ZM20.2444 10V5.37891H20.178L18.7756 6.36328V5.39453L20.2483 4.36328H21.2522V10H20.2444Z" fill="#121312" fill-opacity="0.75"/>
</svg>
