<svg width="26" height="28" viewBox="0 0 26 28" fill="none" xmlns="http://www.w3.org/2000/svg">
<g filter="url(#filter0_d_14_2131)">
<path d="M8 9.1665C8 6.80984 8 5.63067 8.7325 4.899C9.46417 4.1665 10.6433 4.1665 13 4.1665H15.5C17.8567 4.1665 19.0358 4.1665 19.7675 4.899C20.5 5.63067 20.5 6.80984 20.5 9.1665V13.3332C20.5 15.6898 20.5 16.869 19.7675 17.6007C19.0358 18.3332 17.8567 18.3332 15.5 18.3332H13C10.6433 18.3332 9.46417 18.3332 8.7325 17.6007C8 16.869 8 15.6898 8 13.3332V9.1665Z" stroke="white" stroke-opacity="0.75" stroke-width="1.5"/>
<path opacity="0.5" d="M8 15.8332C7.33696 15.8332 6.70107 15.5698 6.23223 15.1009C5.76339 14.6321 5.5 13.9962 5.5 13.3332V8.33317C5.5 5.19067 5.5 3.619 6.47667 2.64317C7.4525 1.6665 9.02417 1.6665 12.1667 1.6665H15.5C16.163 1.6665 16.7989 1.9299 17.2678 2.39874C17.7366 2.86758 18 3.50346 18 4.1665" stroke="white" stroke-opacity="0.75" stroke-width="1.5"/>
</g>
<defs>
<filter id="filter0_d_14_2131" x="-1" y="0" width="28" height="28" filterUnits="userSpaceOnUse" color-interpolation-filters="sRGB">
<feFlood flood-opacity="0" result="BackgroundImageFix"/>
<feColorMatrix in="SourceAlpha" type="matrix" values="0 0 0 0 0 0 0 0 0 0 0 0 0 0 0 0 0 0 127 0" result="hardAlpha"/>
<feOffset dy="4"/>
<feGaussianBlur stdDeviation="2"/>
<feComposite in2="hardAlpha" operator="out"/>
<feColorMatrix type="matrix" values="0 0 0 0 0 0 0 0 0 0 0 0 0 0 0 0 0 0 0.25 0"/>
<feBlend mode="normal" in2="BackgroundImageFix" result="effect1_dropShadow_14_2131"/>
<feBlend mode="normal" in="SourceGraphic" in2="effect1_dropShadow_14_2131" result="shape"/>
</filter>
</defs>
</svg>
