<svg width="33" height="32" viewBox="0 0 33 32" fill="none" xmlns="http://www.w3.org/2000/svg">
<path opacity="0.5" d="M29.5827 21.3333V20C29.5827 16.2293 29.5827 14.344 28.4107 13.1733C27.2387 12 25.3533 12 21.5827 12H10.916C7.14402 12 5.25868 12 4.08668 13.1733C2.91602 14.3427 2.91602 16.2267 2.91602 19.996V21.3333C2.91602 25.1053 2.91602 26.9907 4.08802 28.1627C5.25868 29.3333 7.14535 29.3333 10.916 29.3333H21.5827C25.3533 29.3333 27.24 29.3333 28.4107 28.1627C29.5827 26.9893 29.5827 25.1053 29.5827 21.3333Z" fill="white" fill-opacity="0.95"/>
<path fill-rule="evenodd" clip-rule="evenodd" d="M16.2505 1.6665C15.9853 1.6665 15.7309 1.77186 15.5434 1.9594C15.3558 2.14693 15.2505 2.40129 15.2505 2.6665V17.2972L13.0105 14.6825C12.925 14.5827 12.8208 14.5007 12.7036 14.4412C12.5865 14.3817 12.4588 14.3458 12.3278 14.3357C12.1968 14.3255 12.0651 14.3413 11.9402 14.382C11.8153 14.4228 11.6996 14.4877 11.5998 14.5732C11.5 14.6586 11.418 14.7629 11.3585 14.88C11.299 14.9972 11.2631 15.1249 11.253 15.2559C11.2428 15.3869 11.2586 15.5186 11.2993 15.6435C11.3401 15.7684 11.405 15.884 11.4905 15.9838L15.4905 20.6505C15.5844 20.7603 15.7009 20.8484 15.8321 20.9089C15.9633 20.9693 16.106 21.0006 16.2505 21.0006C16.3949 21.0006 16.5377 20.9693 16.6689 20.9089C16.8001 20.8484 16.9166 20.7603 17.0105 20.6505L21.0105 15.9838C21.0959 15.884 21.1609 15.7684 21.2016 15.6435C21.2424 15.5186 21.2581 15.3869 21.248 15.2559C21.2378 15.1249 21.202 14.9972 21.1425 14.88C21.083 14.7629 21.001 14.6586 20.9012 14.5732C20.8013 14.4877 20.6857 14.4228 20.5608 14.382C20.4359 14.3413 20.3042 14.3255 20.1732 14.3357C20.0422 14.3458 19.9145 14.3817 19.7973 14.4412C19.6802 14.5007 19.5759 14.5827 19.4905 14.6825L17.2505 17.2958V2.6665C17.2505 2.40129 17.1451 2.14693 16.9576 1.9594C16.7701 1.77186 16.5157 1.6665 16.2505 1.6665Z" fill="white" fill-opacity="0.95"/>
</svg>
