<svg width="20" height="20" viewBox="0 0 20 20" fill="none" xmlns="http://www.w3.org/2000/svg">
<path fill-rule="evenodd" clip-rule="evenodd" d="M12.6212 2.41348C11.5953 1.97447 10.4909 1.74874 9.375 1.75001C4.82016 1.75001 1.125 5.44517 1.125 10C1.125 14.5548 4.82016 18.25 9.375 18.25H9.37505C11.0813 18.2499 12.7455 17.721 14.1388 16.7361C15.532 15.7512 16.5858 14.3587 17.1551 12.7502C17.2933 12.3598 17.0888 11.9312 16.6983 11.793C16.3078 11.6548 15.8792 11.8593 15.741 12.2498C15.2752 13.5659 14.413 14.7053 13.2729 15.5112C12.1329 16.3171 10.7711 16.7499 9.375 16.75V3.25001L9.37593 3.25C10.2886 3.24887 11.192 3.43345 12.0311 3.79252C12.8645 4.14916 13.6172 4.67052 14.244 5.32523L14.6379 5.78343L12.738 7.68329C12.3443 8.07704 12.6232 8.75008 13.1802 8.75008H17.4997C17.6655 8.75008 17.8245 8.68423 17.9417 8.56702C18.0589 8.44981 18.1247 8.29084 18.1247 8.12508V3.80555C18.1247 3.24852 17.4517 2.96883 17.0579 3.36336L15.7015 4.71975L15.3688 4.3326L15.3563 4.31814L15.3432 4.30433C14.5735 3.49594 13.6474 2.85261 12.6212 2.41348ZM9.375 3.25001L9.37495 16.75C5.64856 16.75 2.625 13.7264 2.625 10C2.625 6.27359 5.64859 3.25001 9.375 3.25001Z" fill="white" fill-opacity="0.75"/>
</svg>
