<svg width="20" height="20" viewBox="0 0 20 20" fill="none" xmlns="http://www.w3.org/2000/svg">
<path opacity="0.16" d="M15.8333 9.16667C15.8333 10.9348 15.131 12.6305 13.8807 13.8807C12.6305 15.131 10.9348 15.8333 9.16667 15.8333C7.39856 15.8333 5.70286 15.131 4.45262 13.8807C3.20238 12.6305 2.5 10.9348 2.5 9.16667C2.5 7.39856 3.20238 5.70286 4.45262 4.45262C5.70286 3.20238 7.39856 2.5 9.16667 2.5C10.9348 2.5 12.6305 3.20238 13.8807 4.45262C15.131 5.70286 15.8333 7.39856 15.8333 9.16667Z" fill="white" fill-opacity="0.75"/>
<path d="M17.5002 17.5002L13.881 13.881M13.881 13.881C14.5001 13.2619 14.9912 12.527 15.3262 11.7181C15.6612 10.9093 15.8337 10.0423 15.8337 9.16684C15.8337 8.29134 15.6612 7.42441 15.3262 6.61555C14.9912 5.80669 14.5001 5.07174 13.881 4.45267C13.2619 3.8336 12.527 3.34252 11.7181 3.00748C10.9093 2.67244 10.0423 2.5 9.16684 2.5C8.29134 2.5 7.42441 2.67244 6.61555 3.00748C5.80669 3.34252 5.07174 3.8336 4.45267 4.45267C3.2024 5.70295 2.5 7.39868 2.5 9.16684C2.5 10.935 3.2024 12.6307 4.45267 13.881C5.70295 15.1313 7.39868 15.8337 9.16684 15.8337C10.935 15.8337 12.6307 15.1313 13.881 13.881Z" stroke="white" stroke-opacity="0.75" stroke-width="1.5" stroke-linecap="round" stroke-linejoin="round"/>
</svg>
