<svg width="33" height="32" viewBox="0 0 33 32" fill="none" xmlns="http://www.w3.org/2000/svg">
<path d="M21.8288 20.5406L29.024 13.4638L29.1152 13.3598C29.2502 13.1785 29.3153 12.9546 29.2986 12.7292C29.2818 12.5037 29.1843 12.2919 29.024 12.1326L21.8288 5.05897L21.7296 4.97417C21.1536 4.54217 20.3056 4.95817 20.3056 5.72457V9.13257L19.9456 9.15657C14.2448 9.60777 10.9056 13.2158 10.1088 19.7598C10.0064 20.5998 10.9696 21.1262 11.5936 20.5694C13.8832 18.5246 16.2496 17.2542 18.7056 16.7454C19.0992 16.6638 19.4944 16.6014 19.8928 16.5582L20.3056 16.5214V19.875L20.3136 20.0062C20.4096 20.731 21.288 21.0718 21.8288 20.5406ZM20.0624 10.7518L21.9056 10.6286V7.37577L27.4192 12.7966L21.9056 18.2206V14.7694L19.736 14.9646H19.7232C16.9984 15.2574 14.4272 16.3486 12 18.1678C12.4768 16.0254 13.2912 14.4142 14.3616 13.2606C15.6896 11.8286 17.5456 10.9534 20.0624 10.7518ZM9.30078 6.39977C8.23992 6.39977 7.2225 6.8212 6.47235 7.57135C5.72221 8.32149 5.30078 9.33891 5.30078 10.3998V23.1998C5.30078 24.2606 5.72221 25.2781 6.47235 26.0282C7.2225 26.7783 8.23992 27.1998 9.30078 27.1998H22.1008C23.1616 27.1998 24.1791 26.7783 24.9292 26.0282C25.6794 25.2781 26.1008 24.2606 26.1008 23.1998V21.5998C26.1008 21.3876 26.0165 21.1841 25.8665 21.0341C25.7164 20.8841 25.513 20.7998 25.3008 20.7998C25.0886 20.7998 24.8851 20.8841 24.7351 21.0341C24.5851 21.1841 24.5008 21.3876 24.5008 21.5998V23.1998C24.5008 23.8363 24.2479 24.4467 23.7978 24.8968C23.3478 25.3469 22.7373 25.5998 22.1008 25.5998H9.30078C8.66426 25.5998 8.05381 25.3469 7.60372 24.8968C7.15364 24.4467 6.90078 23.8363 6.90078 23.1998V10.3998C6.90078 9.76325 7.15364 9.1528 7.60372 8.70272C8.05381 8.25263 8.66426 7.99977 9.30078 7.99977H14.1008C14.313 7.99977 14.5164 7.91549 14.6665 7.76546C14.8165 7.61543 14.9008 7.41195 14.9008 7.19977C14.9008 6.9876 14.8165 6.78412 14.6665 6.63409C14.5164 6.48406 14.313 6.39977 14.1008 6.39977H9.30078Z" fill="white"/>
</svg>
