<svg width="32" height="32" viewBox="0 0 32 32" fill="none" xmlns="http://www.w3.org/2000/svg">
<path d="M11.1714 12.1714L12.0576 13.9439C12.644 15.1148 12.9354 15.7003 12.9354 16.3301C12.9354 16.9599 12.6431 17.5463 12.0586 18.7154L11.1723 20.4879C9.69211 23.4464 8.95295 24.9248 9.63271 25.6045C10.3115 26.2833 11.7908 25.5451 14.7493 24.0649L25.4502 18.7154C27.5319 17.6746 28.5728 17.1541 28.5728 16.3301C28.5728 15.5061 27.5319 14.9857 25.4521 13.9448L14.7465 8.59436C11.7917 7.11604 10.3115 6.37499 9.63177 7.05476C8.95295 7.73358 9.69211 9.21379 11.1714 12.1714Z" fill="white" fill-opacity="0.25"/>
<path d="M11.1714 12.1714L12.0576 13.9439C12.644 15.1148 12.9354 15.7003 12.9354 16.3301C12.9354 16.9599 12.6431 17.5463 12.0586 18.7154L11.1723 20.4879C9.69211 23.4464 8.95295 24.9248 9.63271 25.6045C10.3115 26.2833 11.7908 25.5451 14.7493 24.0649L25.4502 18.7154C27.5319 17.6746 28.5728 17.1541 28.5728 16.3301C28.5728 15.5061 27.5319 14.9857 25.4521 13.9448L14.7465 8.59436C11.7917 7.11604 10.3115 6.37499 9.63177 7.05476C8.95295 7.73358 9.69211 9.21379 11.1714 12.1714Z" fill="white" fill-opacity="0.35"/>
<path d="M11.0667 15.6923L9.77034 13.1005C9.67965 12.9191 9.54878 12.7608 9.38769 12.6376C9.2266 12.5144 9.03953 12.4296 8.84073 12.3896L7.12858 12.0464C6.92588 12.0058 6.71575 12.025 6.52375 12.1016C6.33174 12.1783 6.16614 12.309 6.04708 12.478C5.92802 12.647 5.86064 12.847 5.85313 13.0536C5.84561 13.2602 5.89829 13.4645 6.00476 13.6417L7.38786 15.945C7.45009 16.0486 7.48297 16.1672 7.48297 16.2881C7.48297 16.409 7.45009 16.5277 7.38786 16.6313L6.00475 18.9346C5.89829 19.1118 5.84561 19.3161 5.85313 19.5227C5.86064 19.7293 5.92802 19.9293 6.04708 20.0983C6.16614 20.2673 6.33174 20.398 6.52375 20.4746C6.71575 20.5513 6.92588 20.5704 7.12858 20.5298L8.84072 20.1867C9.03953 20.1467 9.2266 20.0618 9.38769 19.9387C9.54878 19.8155 9.67965 19.6572 9.77034 19.4758L11.0667 16.884C11.1591 16.699 11.2072 16.495 11.2072 16.2881C11.2072 16.0813 11.1591 15.8773 11.0667 15.6923Z" fill="white" fill-opacity="0.95"/>
</svg>
